# xmcd
#
# Track frame offsets:
#	150
#	12225
#	25350
#	38022
#	52280
#	64902
#	78127
#	87867
#	99132
#	110465
#	123682
#	133230
#	150292
#	162120
#	176595
#	188712
#
# Disc length: 2698 seconds
#
# Revision: 0
# Processed by: cddbd v1.5.1PL0 Copyright (c) Steve Scherf et al.
# Submitted via: EasyCDDAExtractor 8.2.1.1
#
DISCID=c70a8810
DTITLE=Various Artist - Going West With The Best - Disc 1
DYEAR=2000
DGENRE=Country
TTITLE0=Tammy Wynette - Stand By Your Man
TTITLE1=Kenny Rogers - Ruby Don't Take Your Love To Town
TTITLE2=BJ Thomas - Raindrops Keep Falling On My Head
TTITLE3=Glen Campbell - Rhinestone Cowboy
TTITLE4=Charlie Pride - Crystal Chandelier
TTITLE5=Lynn Anderson - Rose Garden
TTITLE6=Johnny Cash - Ballad Of A Teenage Queen
TTITLE7=Don Gibson - Oh Lonesome Me
TTITLE8=Marty Robbins - A White Sports Coat
TTITLE9=Dolly Parton - Here You Come Again
TTITLE10=Ned Miller - From A Jack To A King
TTITLE11=Kris Kristofferson - Loving Her Was Easier (Than Anything I'll Ever D
TTITLE11=o Again)
TTITLE12=Skeeter Davis - End Of The World
TTITLE13=Jeannie C Riley - Harper Valley PTA
TTITLE14=Johnny Paycheck - Take This Job And Shove It
TTITLE15=Freddy Fender - Wasted Days And Wasted Nights
EXTD=
EXTT0=
EXTT1=
EXTT2=
EXTT3=
EXTT4=
EXTT5=
EXTT6=
EXTT7=
EXTT8=
EXTT9=
EXTT10=
EXTT11=
EXTT12=
EXTT13=
EXTT14=
EXTT15=
PLAYORDER=
